<svg width="270" height="30" viewBox="0 0 270 30" fill="none" xmlns="http://www.w3.org/2000/svg">
<path d="M19.2368 1.776C19.5354 1.776 19.8981 1.97867 20.3248 2.384C20.7728 2.768 20.9968 3.09867 20.9968 3.376C20.9968 4.67733 20.9541 6.45867 20.8688 8.72C20.8474 9.27467 20.8261 9.94667 20.8048 10.736C20.7834 11.504 20.7728 12.4 20.7728 13.424C20.7728 16.6667 20.9648 19.056 21.3488 20.592C21.3274 21.104 21.1248 21.4773 20.7408 21.712C20.3568 21.9253 19.9728 22.032 19.5888 22.032C18.7354 22.032 18.1701 21.7333 17.8928 21.136C17.6368 20.5387 17.5088 19.6853 17.5088 18.576C17.5088 14.4587 17.5514 10.672 17.6368 7.216C15.1834 9.94667 13.2741 12.24 11.9088 14.096C11.9088 14.096 11.7168 14.224 11.3328 14.48C10.9701 14.8 10.6714 14.96 10.4368 14.96C9.88208 14.96 9.42342 14.8213 9.06075 14.544C8.69808 14.2667 8.34608 13.8613 8.00475 13.328L6.46875 11.152C5.40208 9.65867 4.62342 8.528 4.13275 7.76C4.13275 9.72267 4.22875 12.3893 4.42075 15.76C4.57008 17.7013 4.64475 19.1627 4.64475 20.144C4.64475 20.656 4.51675 21.0933 4.26075 21.456C4.00475 21.7973 3.59942 21.968 3.04475 21.968C2.49008 21.968 2.03142 21.8613 1.66875 21.648C1.32742 21.4347 1.14608 21.1147 1.12475 20.688C1.14608 20.3253 1.15675 19.728 1.15675 18.896C1.15675 17.232 1.10342 15.2053 0.99675 12.816L0.93275 11.088L0.86875 8.848C0.847417 8.18667 0.826083 7.41867 0.80475 6.544C0.783417 5.648 0.77275 4.67733 0.77275 3.632C0.77275 2.352 1.46608 1.712 2.85275 1.712C3.27942 1.712 3.70608 1.81867 4.13275 2.032C4.58075 2.24533 4.91142 2.55467 5.12475 2.96C5.29542 3.70667 5.92475 4.944 7.01275 6.672C8.10075 8.4 9.16742 10.0213 10.2128 11.536C11.1514 10.3413 11.9194 9.44533 12.5168 8.848C13.5408 7.80267 14.3834 6.832 15.0448 5.936C15.7274 5.04 16.4634 3.96267 17.2528 2.704C17.4448 2.448 17.7221 2.23467 18.0848 2.064C18.4474 1.872 18.8314 1.776 19.2368 1.776ZM37.993 11.728C38.1637 12.0267 38.3023 12.464 38.409 13.04C38.5157 13.5947 38.569 14.096 38.569 14.544C38.569 15.376 38.3877 16.56 38.025 18.096C36.553 20.784 34.377 22.128 31.497 22.128C30.4303 22.128 29.3423 21.776 28.233 21.072C27.1237 20.368 26.3557 19.5573 25.929 18.64C25.353 16.8053 25.065 15.6427 25.065 15.152C25.065 14.2987 25.2463 13.392 25.609 12.432C25.993 11.472 26.473 10.64 27.049 9.936C27.4117 9.44533 28.0623 9.02933 29.001 8.688C29.9397 8.32533 30.793 8.144 31.561 8.144C33.0543 8.144 34.3237 8.432 35.369 9.008C36.4143 9.56267 37.289 10.4693 37.993 11.728ZM35.209 16.88C35.3157 16.6027 35.369 15.888 35.369 14.736C35.369 14.1173 35.2517 13.5093 35.017 12.912C34.8037 12.3147 34.4837 11.8027 34.057 11.376C34.0143 11.3333 33.897 11.2693 33.705 11.184C33.513 11.0773 33.2463 10.9813 32.905 10.896C32.585 10.7893 32.2117 10.736 31.785 10.736C30.5903 10.736 29.7157 11.216 29.161 12.176C28.6063 13.136 28.329 14.224 28.329 15.44C28.329 15.6533 28.3823 16.0587 28.489 16.656C28.617 17.2533 28.7237 17.6267 28.809 17.776C28.873 17.9253 29.033 18.1387 29.289 18.416C29.5663 18.672 29.897 18.9067 30.281 19.12C30.6863 19.312 31.1023 19.408 31.529 19.408C32.489 19.408 33.257 19.184 33.833 18.736C34.409 18.2667 34.8677 17.648 35.209 16.88ZM46.432 20.72C46.432 21.0827 46.2933 21.4027 46.016 21.68C45.7387 21.9573 45.3973 22.096 44.992 22.096C44.352 22.096 43.8827 21.9787 43.584 21.744C43.2853 21.488 43.136 21.0293 43.136 20.368C43.136 19.5787 43.1147 18.544 43.072 17.264C43.0293 16.1973 43.008 15.3013 43.008 14.576C43.008 14.2347 43.0293 13.7867 43.072 13.232C43.1147 12.72 43.136 12.336 43.136 12.08C43.072 11.6747 42.912 11.344 42.656 11.088C42.4 10.8107 42.0693 10.672 41.664 10.672C41.472 10.672 41.312 10.5867 41.184 10.416C41.056 10.224 40.992 10.032 40.992 9.84C40.992 9.34933 41.184 8.976 41.568 8.72C41.9733 8.464 42.4533 8.336 43.008 8.336C44.16 8.336 44.96 9.01867 45.408 10.384C45.9627 9.744 46.592 9.232 47.296 8.848C48.0213 8.44267 48.7147 8.24 49.376 8.24C50.1653 8.24 50.88 8.45333 51.52 8.88C52.1813 9.30667 52.512 9.88267 52.512 10.608C52.512 11.0133 52.3307 11.4293 51.968 11.856C51.6267 12.2827 51.2747 12.496 50.912 12.496C50.72 12.496 50.5493 12.4533 50.4 12.368C50.272 12.2613 50.112 12.112 49.92 11.92C49.7067 11.7067 49.5253 11.5573 49.376 11.472C49.2267 11.3653 49.056 11.312 48.864 11.312C48.5227 11.312 48.2027 11.3653 47.904 11.472C47.6053 11.5787 47.4027 11.7067 47.296 11.856C46.9547 12.3893 46.6987 12.8693 46.528 13.296C46.3787 13.7227 46.304 14.1813 46.304 14.672C46.304 15.0347 46.2933 15.3227 46.272 15.536L46.24 17.36C46.24 17.6373 46.2507 17.9467 46.272 18.288C46.2933 18.6293 46.3147 18.8853 46.336 19.056C46.4 19.632 46.432 20.1867 46.432 20.72ZM66.5748 22.128C65.8494 22.128 65.2948 22.0213 64.9108 21.808C64.5268 21.5733 64.1108 21.1467 63.6628 20.528C63.1081 21.0187 62.2761 21.4133 61.1667 21.712C60.0788 22.0107 59.1401 22.16 58.3508 22.16C57.0494 22.16 55.9934 21.808 55.1828 21.104C54.3934 20.3787 53.9988 19.3227 53.9988 17.936C53.9988 17.3387 54.1588 16.7947 54.4788 16.304C54.8201 15.792 55.2574 15.344 55.7908 14.96C56.3881 14.5547 57.0921 14.2347 57.9028 14C58.7348 13.7653 59.4921 13.648 60.1748 13.648C61.3268 13.648 62.3508 13.7547 63.2468 13.968V13.936C63.2468 12.784 62.9588 11.9947 62.3828 11.568C61.8281 11.12 60.9321 10.896 59.6948 10.896C58.9054 10.896 58.2228 11.248 57.6468 11.952C57.4334 12.2293 56.9854 12.368 56.3028 12.368C55.9614 12.368 55.7054 12.2293 55.5348 11.952C55.3854 11.6533 55.3108 11.3547 55.3108 11.056C55.3108 10.4373 55.5668 9.904 56.0788 9.456C56.6121 9.008 57.2521 8.67733 57.9988 8.464C58.7454 8.22933 59.4388 8.112 60.0788 8.112C60.6974 8.112 61.4334 8.24 62.2868 8.496C63.1401 8.752 63.8334 9.09333 64.3668 9.52C65.0068 10.0747 65.4974 10.7253 65.8388 11.472C66.2014 12.1973 66.3828 12.9973 66.3828 13.872C66.3828 14.1493 66.3614 14.5653 66.3188 15.12C66.2761 15.76 66.2548 16.2827 66.2548 16.688C66.2548 16.88 66.2334 17.1253 66.1908 17.424C66.1481 17.808 66.1268 18.128 66.1268 18.384C66.1268 18.6613 66.2121 18.928 66.3828 19.184C66.5534 19.44 66.7881 19.6533 67.0868 19.824C67.3641 19.9733 67.5454 20.1333 67.6308 20.304C67.7161 20.4747 67.7588 20.6667 67.7588 20.88C67.7588 21.0933 67.6201 21.36 67.3428 21.68C67.0868 21.9787 66.8308 22.128 66.5748 22.128ZM60.1748 16.016C59.3428 16.016 58.6068 16.176 57.9668 16.496C57.3268 16.816 57.0068 17.3813 57.0068 18.192C57.0068 18.5973 57.1454 18.9387 57.4227 19.216C57.7214 19.4933 58.0414 19.632 58.3828 19.632C59.3001 19.632 60.0681 19.536 60.6868 19.344C61.3054 19.152 62.0521 18.8 62.9268 18.288C63.0334 17.9467 63.0974 17.4667 63.1188 16.848C63.1188 16.6133 63.1294 16.432 63.1508 16.304C61.9988 16.112 61.0068 16.016 60.1748 16.016ZM69.9088 10.736C69.7381 10.608 69.5994 10.48 69.4928 10.352C69.3861 10.2027 69.3328 9.94667 69.3328 9.584C69.3328 9.17867 69.4714 8.86933 69.7488 8.656C70.0474 8.42133 70.3888 8.304 70.7728 8.304C71.5194 8.304 72.1594 8.496 72.6927 8.88C73.2474 9.264 73.6528 9.79733 73.9088 10.48C74.3781 9.60533 74.9754 9.008 75.7008 8.688C76.4261 8.34667 77.4288 8.176 78.7088 8.176C79.2208 8.176 79.7434 8.336 80.2768 8.656C80.8314 8.95467 81.3328 9.328 81.7808 9.776C82.1434 10.2453 82.4528 10.832 82.7088 11.536C82.9648 12.2187 83.0928 12.8373 83.0928 13.392C83.0928 13.712 83.0714 14.2347 83.0288 14.96C82.9861 15.728 82.9648 16.336 82.9648 16.784C82.9648 18.2773 83.2528 19.1947 83.8288 19.536C83.9141 19.5787 84.0741 19.632 84.3088 19.696C84.5434 19.76 84.7141 19.824 84.8208 19.888C84.9488 19.952 85.0128 20.048 85.0128 20.176C85.0341 20.688 84.8421 21.1147 84.4368 21.456C84.0528 21.776 83.5834 21.936 83.0288 21.936C82.1968 21.936 81.5461 21.712 81.0768 21.264C80.6074 20.816 80.2768 20.1333 80.0848 19.216C79.9781 18.8747 79.9248 18.3733 79.9248 17.712C79.9248 17.3493 79.9461 16.7627 79.9888 15.952C80.0528 15.312 80.0848 14.6293 80.0848 13.904C80.0848 13.1573 79.8714 12.5067 79.4448 11.952C79.0181 11.376 78.4314 11.088 77.6848 11.088C77.2368 11.088 76.7674 11.2267 76.2768 11.504C75.7861 11.76 75.4448 12.08 75.2528 12.464C74.9328 13.1253 74.7194 13.7973 74.6128 14.48C74.3568 15.8027 74.2288 17.072 74.2288 18.288C74.2288 18.5867 74.2501 19.1627 74.2928 20.016C74.2928 20.08 74.2928 20.24 74.2928 20.496C74.2928 20.7307 74.2608 20.9547 74.1968 21.168C74.1541 21.3813 74.0688 21.5733 73.9408 21.744C73.8554 21.8293 73.6954 21.9147 73.4608 22C73.2261 22.0853 73.0234 22.128 72.8528 22.128C72.5541 22.128 72.1808 22 71.7328 21.744C71.2848 21.488 71.0181 21.2 70.9328 20.88L70.9008 20.432C70.9008 20.2613 70.9221 20.0053 70.9648 19.664C71.2208 18.1707 71.3488 16.8693 71.3488 15.76C71.3488 15.2693 71.3381 14.896 71.3168 14.64L71.2848 13.168C71.2848 12.72 71.1568 12.2933 70.9008 11.888C70.6448 11.4613 70.3141 11.0773 69.9088 10.736ZM89.6273 21.52C89.4779 21.2 89.4033 20.8267 89.4033 20.4C89.4033 19.9947 89.7019 19.3867 90.2993 18.576C89.2753 18.2347 88.4646 17.6267 87.8673 16.752C87.2913 15.8773 87.0033 14.8533 87.0033 13.68C87.0033 12.912 87.1846 12.2187 87.5473 11.6C87.9099 10.96 88.4113 10.352 89.0513 9.776C90.1393 8.79467 91.6433 8.304 93.5633 8.304C94.3313 8.304 95.2806 8.47467 96.4113 8.816C97.7553 7.664 98.9393 7.088 99.9633 7.088C100.603 7.088 101.062 7.216 101.339 7.472C101.638 7.70667 101.787 8.12267 101.787 8.72C101.787 8.95467 101.691 9.17867 101.499 9.392C101.329 9.584 101.105 9.68 100.827 9.68L99.6753 9.648C98.9499 9.648 98.4273 9.78667 98.1073 10.064C98.5126 10.5547 98.8433 11.184 99.0993 11.952C99.3766 12.72 99.5153 13.5947 99.5153 14.576C99.5153 15.8773 98.6193 17.0933 96.8273 18.224C95.7179 18.8213 94.4273 19.1307 92.9553 19.152C92.7846 19.3227 92.6353 19.4827 92.5073 19.632C92.4006 19.76 92.3473 19.8667 92.3473 19.952C92.3473 20.1867 92.5499 20.368 92.9553 20.496C93.3606 20.624 93.9793 20.72 94.8113 20.784C95.4299 20.8267 96.1233 20.9653 96.8913 21.2C97.6806 21.4133 98.2993 21.6587 98.7473 21.936C99.3019 22.3413 99.6859 22.7787 99.8993 23.248C100.134 23.7173 100.251 24.304 100.251 25.008C100.251 25.9253 99.8246 26.6933 98.9713 27.312C98.1393 27.952 97.1579 28.4213 96.0273 28.72C94.8966 29.0187 93.9046 29.168 93.0513 29.168C92.0273 29.168 91.1526 29.04 90.4273 28.784C89.7233 28.5493 89.0513 28.2187 88.4113 27.792C87.9633 27.472 87.6113 27.0667 87.3553 26.576C87.0993 26.0853 86.9713 25.5733 86.9713 25.04C86.9713 24.6133 87.2913 24.0373 87.9313 23.312C88.5926 22.5867 89.2326 22.0853 89.8513 21.808C89.7873 21.744 89.7126 21.648 89.6273 21.52ZM92.8593 16.528C93.8619 16.528 94.7046 16.2613 95.3873 15.728C96.0699 15.1733 96.4113 14.416 96.4113 13.456C96.4113 12.688 96.1873 12.08 95.7393 11.632C95.2913 11.1627 94.6619 10.928 93.8513 10.928C92.1659 10.928 91.0673 11.3013 90.5553 12.048C90.4273 12.2187 90.2993 12.5493 90.1713 13.04C90.0433 13.5093 89.9793 13.872 89.9793 14.128C89.9793 14.4907 90.1073 14.864 90.3633 15.248C90.6406 15.6107 91.0033 15.92 91.4513 16.176C91.8993 16.4107 92.3686 16.528 92.8593 16.528ZM89.9793 25.264C89.9793 25.6267 90.3099 25.936 90.9713 26.192C91.6539 26.4693 92.3793 26.608 93.1473 26.608C94.0006 26.608 94.8753 26.448 95.7713 26.128C96.6886 25.8293 97.1473 25.424 97.1473 24.912C97.1473 24.1653 96.4859 23.6853 95.1633 23.472C93.7126 23.216 92.5713 22.9813 91.7393 22.768C91.6539 23.0667 91.3659 23.4507 90.8753 23.92C90.5553 24.24 90.3206 24.4853 90.1713 24.656C90.0433 24.848 89.9793 25.0507 89.9793 25.264ZM116.242 11.728C116.412 12.0267 116.551 12.464 116.658 13.04C116.764 13.5947 116.818 14.096 116.818 14.544C116.818 15.1413 116.722 15.888 116.53 16.784C116.338 17.6587 116.178 18.2453 116.05 18.544C114.898 20.9333 112.679 22.128 109.394 22.128C108.348 22.128 107.324 21.7867 106.322 21.104C105.319 20.4 104.604 19.5787 104.178 18.64L103.954 18C103.932 17.9147 103.815 17.5947 103.602 17.04C103.41 16.464 103.314 16.0267 103.314 15.728C103.314 14.8533 103.527 13.84 103.954 12.688C104.38 11.536 104.871 10.6187 105.426 9.936C105.788 9.44533 106.482 9.02933 107.506 8.688C108.53 8.32533 109.436 8.144 110.226 8.144C111.698 8.144 112.882 8.42133 113.778 8.976C114.695 9.53067 115.516 10.448 116.242 11.728ZM113.298 16.88C113.383 16.7307 113.458 16.464 113.522 16.08C113.586 15.696 113.618 15.248 113.618 14.736C113.618 14.1173 113.5 13.5093 113.266 12.912C113.052 12.3147 112.732 11.8027 112.306 11.376C112.284 11.3333 112.21 11.2693 112.082 11.184C111.954 11.0773 111.751 10.9813 111.474 10.896C111.196 10.7893 110.844 10.736 110.418 10.736C109.586 10.736 108.882 10.9813 108.306 11.472C107.73 11.9627 107.292 12.5707 106.994 13.296C106.716 14.0213 106.578 14.736 106.578 15.44C106.578 15.632 106.642 16.0267 106.77 16.624C106.898 17.2213 106.994 17.6053 107.058 17.776C107.228 18.0747 107.559 18.4267 108.05 18.832C108.54 19.216 109.095 19.408 109.714 19.408C110.674 19.408 111.42 19.184 111.954 18.736C112.508 18.288 112.956 17.6693 113.298 16.88ZM140.799 17.648C141.204 17.648 141.503 17.808 141.695 18.128C141.908 18.4267 142.015 18.7573 142.015 19.12C142.015 19.568 141.94 19.888 141.791 20.08C141.663 20.2507 141.407 20.432 141.023 20.624C140.127 21.0507 139.018 21.392 137.695 21.648C136.372 21.904 134.954 22.032 133.439 22.032C131.54 22.032 130.143 21.712 129.247 21.072C128.372 20.432 127.828 19.664 127.615 18.768C127.423 17.8507 127.327 16.656 127.327 15.184C127.327 13.6053 127.391 12.0587 127.519 10.544C127.647 9.008 127.871 7.056 128.191 4.688C128.34 3.664 128.746 2.928 129.407 2.48C130.068 2.01067 130.794 1.776 131.583 1.776C132.244 1.776 133.322 1.75467 134.815 1.712L137.599 1.68C138.751 1.68 139.583 1.712 140.095 1.776C140.735 1.904 141.204 2.05333 141.503 2.224C141.823 2.37333 141.983 2.64 141.983 3.024C141.983 3.45067 141.834 3.86667 141.535 4.272C141.258 4.67733 140.831 4.88 140.255 4.88C139.594 4.88 138.644 4.83733 137.407 4.752C136.17 4.66667 135.242 4.624 134.623 4.624C134.09 4.624 133.567 4.656 133.055 4.72C132.458 4.76267 132.031 4.83733 131.775 4.944C131.519 5.05067 131.37 5.232 131.327 5.488C131.028 7.68533 130.879 9.30667 130.879 10.352C131.37 10.416 131.85 10.448 132.319 10.448C132.916 10.448 133.556 10.416 134.239 10.352C134.922 10.288 135.359 10.2453 135.551 10.224C136.682 10.1173 137.652 10.064 138.463 10.064C138.932 10.064 139.284 10.1493 139.519 10.32C139.775 10.4907 139.903 10.7253 139.903 11.024C139.903 11.4933 139.775 11.856 139.519 12.112C139.284 12.368 138.858 12.56 138.239 12.688C137.492 12.8373 136.564 12.9547 135.455 13.04C134.367 13.1253 133.3 13.168 132.255 13.168C131.892 13.168 131.391 13.1467 130.751 13.104C130.687 14.4053 130.655 15.6107 130.655 16.72C130.655 18.2347 131.658 18.992 133.663 18.992C134.73 18.992 135.615 18.9173 136.319 18.768C137.023 18.6187 137.834 18.4053 138.751 18.128C139.604 17.808 140.287 17.648 140.799 17.648ZM153.687 14.8C153.858 14.9067 154.189 15.1093 154.679 15.408C155.191 15.6853 155.533 16.016 155.703 16.4C155.874 16.784 155.959 17.3173 155.959 18C155.959 18.768 155.735 19.4507 155.287 20.048C154.839 20.624 154.263 21.072 153.559 21.392C153.047 21.6267 152.418 21.808 151.671 21.936C150.946 22.064 150.37 22.128 149.943 22.128C149.517 22.128 148.962 22.064 148.279 21.936C147.618 21.808 147.159 21.6907 146.903 21.584C146.242 21.2 145.666 20.7307 145.175 20.176C144.706 19.6213 144.471 19.056 144.471 18.48C144.471 18.0533 144.61 17.7227 144.887 17.488C145.165 17.232 145.527 17.104 145.975 17.104C146.189 17.104 146.413 17.1893 146.647 17.36C146.882 17.5093 147.042 17.6693 147.127 17.84C147.362 18.3947 147.757 18.8107 148.311 19.088C148.866 19.3653 149.431 19.504 150.007 19.504C150.754 19.504 151.447 19.3867 152.087 19.152C152.727 18.896 153.047 18.5547 153.047 18.128C153.047 17.936 152.994 17.7867 152.887 17.68C152.802 17.552 152.674 17.424 152.503 17.296C152.205 17.0827 151.757 16.912 151.159 16.784C150.562 16.6347 150.178 16.5387 150.007 16.496C149.133 16.304 148.279 16.016 147.447 15.632C146.615 15.2267 145.954 14.7467 145.463 14.192C144.973 13.6373 144.727 12.9227 144.727 12.048C144.727 11.472 144.941 10.8747 145.367 10.256C145.794 9.616 146.274 9.168 146.807 8.912C147.191 8.76267 147.831 8.60267 148.727 8.432C149.645 8.26133 150.263 8.176 150.583 8.176C151.074 8.176 151.607 8.22933 152.183 8.336C152.759 8.42133 153.197 8.57067 153.495 8.784C154.071 9.12533 154.541 9.488 154.903 9.872C155.266 10.2347 155.447 10.6507 155.447 11.12C155.447 11.3547 155.394 11.6107 155.287 11.888C155.181 12.144 155.053 12.304 154.903 12.368C154.583 12.5173 154.21 12.592 153.783 12.592C153.591 12.592 153.431 12.5387 153.303 12.432C153.197 12.3253 153.047 12.1547 152.855 11.92C152.621 11.5573 152.397 11.344 152.183 11.28C151.927 11.216 151.554 11.1413 151.063 11.056C150.573 10.9493 150.242 10.896 150.071 10.896C149.581 10.896 149.069 11.0347 148.535 11.312C148.023 11.5893 147.767 11.9093 147.767 12.272C147.767 12.464 147.842 12.6133 147.991 12.72C148.162 12.8267 148.333 12.9227 148.503 13.008C148.695 13.0933 148.823 13.1467 148.887 13.168C149.335 13.3813 149.826 13.5627 150.359 13.712C150.914 13.8613 151.255 13.9573 151.383 14C152.535 14.2773 153.303 14.544 153.687 14.8ZM158.945 10.992C158.412 10.544 158.145 10.0213 158.145 9.424C158.145 9.12533 158.295 8.85867 158.593 8.624C158.892 8.368 159.255 8.24 159.681 8.24C160.449 8.24 161.079 8.44267 161.569 8.848C162.06 9.25333 162.487 9.84 162.849 10.608C163.297 9.776 163.863 9.168 164.545 8.784C165.249 8.37867 166.135 8.176 167.201 8.176C167.841 8.176 168.353 8.26133 168.737 8.432C169.143 8.58133 169.473 8.80533 169.729 9.104C169.985 9.38133 170.305 9.808 170.689 10.384C171.244 9.70133 171.937 9.168 172.769 8.784C173.623 8.4 174.497 8.208 175.393 8.208C176.439 8.208 177.388 8.64533 178.241 9.52C179.116 10.3947 179.703 11.3867 180.001 12.496C180.108 12.9653 180.183 14.0747 180.225 15.824L180.353 17.68C180.46 18.8107 180.823 19.4827 181.441 19.696C181.74 19.7813 181.985 19.888 182.177 20.016C182.391 20.1227 182.497 20.24 182.497 20.368C182.54 20.88 182.423 21.2533 182.145 21.488C181.953 21.616 181.687 21.7547 181.345 21.904C181.004 22.0533 180.737 22.128 180.545 22.128C179.393 22.128 178.572 21.712 178.081 20.88C177.761 20.3253 177.559 19.696 177.473 18.992C177.388 18.2667 177.345 17.2853 177.345 16.048C177.345 14.7253 177.185 13.5947 176.865 12.656C176.545 11.696 175.82 11.216 174.689 11.216C174.284 11.216 173.879 11.344 173.473 11.6C173.089 11.8347 172.812 12.1333 172.641 12.496C172.343 13.072 172.14 13.7013 172.033 14.384C171.927 15.0453 171.873 15.8133 171.873 16.688C171.873 17.2427 171.905 17.808 171.969 18.384C171.969 18.5547 171.98 18.832 172.001 19.216C172.044 19.5787 172.065 19.9093 172.065 20.208C172.065 20.7413 171.959 21.2 171.745 21.584C171.553 21.9467 171.212 22.128 170.721 22.128C169.548 22.128 168.929 21.5093 168.865 20.272C168.865 19.3973 168.876 18.928 168.897 18.864V17.488C168.897 16.72 168.865 15.9733 168.801 15.248C168.737 14.5227 168.663 13.9787 168.577 13.616C168.385 12.912 168.129 12.368 167.809 11.984C167.489 11.6 166.999 11.408 166.337 11.408C165.889 11.408 165.473 11.5147 165.089 11.728C164.705 11.9413 164.375 12.24 164.097 12.624C163.692 13.264 163.425 14.0427 163.297 14.96C163.169 16.1333 163.073 17.0613 163.009 17.744C162.967 18.4053 162.945 19.1733 162.945 20.048C162.945 20.6667 162.839 21.168 162.625 21.552C162.433 21.936 162.06 22.128 161.505 22.128C161.1 22.128 160.673 22.0213 160.225 21.808C159.799 21.5733 159.585 21.264 159.585 20.88C159.585 20.4747 159.628 20.0693 159.713 19.664C159.905 18.448 160.001 16.3787 160.001 13.456C160.001 12.9867 159.895 12.528 159.681 12.08C159.489 11.6107 159.244 11.248 158.945 10.992ZM184.471 15.216C184.471 14.4053 184.621 13.5947 184.919 12.784C185.218 11.952 185.613 11.1947 186.103 10.512C186.594 9.82933 187.373 9.27467 188.439 8.848C189.506 8.4 190.455 8.176 191.287 8.176C192.141 8.176 193.005 8.29333 193.879 8.528C194.775 8.76267 195.394 9.12533 195.735 9.616C196.525 10.7253 196.919 11.8133 196.919 12.88C196.919 13.456 196.791 13.9467 196.535 14.352C196.301 14.7573 195.959 15.1947 195.511 15.664C195.149 16.048 194.573 16.304 193.783 16.432C193.015 16.56 192.247 16.624 191.479 16.624C190.989 16.624 190.391 16.5813 189.687 16.496C188.983 16.3893 188.301 16.2613 187.639 16.112C187.682 16.5387 187.789 16.9547 187.959 17.36C188.13 17.7653 188.333 18.0747 188.567 18.288C188.994 18.6933 189.431 18.9493 189.879 19.056C190.349 19.1627 190.946 19.216 191.671 19.216C192.439 19.216 193.154 19.088 193.815 18.832C194.349 18.64 194.786 18.544 195.127 18.544C195.533 18.544 195.842 18.672 196.055 18.928C196.269 19.1627 196.375 19.472 196.375 19.856C196.375 20.3893 196.066 20.8267 195.447 21.168C194.829 21.5093 194.114 21.7653 193.303 21.936C192.514 22.0853 191.874 22.16 191.383 22.16C190.381 22.16 189.41 21.9787 188.471 21.616C187.533 21.2533 186.754 20.7413 186.135 20.08C185.623 19.4827 185.218 18.768 184.919 17.936C184.621 17.0827 184.471 16.176 184.471 15.216ZM191.447 10.896C190.978 10.896 190.509 10.992 190.039 11.184C189.57 11.3547 189.186 11.6 188.887 11.92C188.503 12.3253 188.237 12.656 188.087 12.912C187.959 13.1467 187.874 13.4773 187.831 13.904C188.365 14.0747 189.474 14.16 191.159 14.16C192.077 14.16 192.781 14.0213 193.271 13.744C193.783 13.4667 194.039 13.104 194.039 12.656C194.039 12.208 193.762 11.8027 193.207 11.44C192.653 11.0773 192.066 10.896 191.447 10.896ZM204.425 20.72C204.383 21.0827 204.233 21.4027 203.977 21.68C203.721 21.9573 203.391 22.096 202.985 22.096C202.345 22.096 201.876 21.9787 201.577 21.744C201.279 21.488 201.129 21.0293 201.129 20.368C201.129 19.472 201.183 18.4907 201.289 17.424C201.375 16.1867 201.417 15.2373 201.417 14.576C201.417 14.2347 201.396 13.808 201.353 13.296C201.311 12.8267 201.289 12.4747 201.289 12.24C201.225 11.8773 201.076 11.5893 200.841 11.376C200.628 11.1627 200.287 10.9813 199.817 10.832C199.625 10.7467 199.465 10.608 199.337 10.416C199.209 10.2027 199.145 10.0107 199.145 9.84C199.145 9.34933 199.337 8.976 199.721 8.72C200.105 8.464 200.575 8.336 201.129 8.336C201.748 8.336 202.281 8.54933 202.729 8.976C203.177 9.40267 203.519 9.936 203.753 10.576C204.244 9.872 204.841 9.30667 205.545 8.88C206.271 8.45333 206.975 8.24 207.657 8.24C208.532 8.24 209.268 8.38933 209.865 8.688C210.484 8.96533 210.793 9.456 210.793 10.16C210.793 10.5653 210.612 10.992 210.249 11.44C209.908 11.8667 209.556 12.08 209.193 12.08C208.916 12.08 208.585 11.952 208.201 11.696C208.052 11.5893 207.881 11.504 207.689 11.44C207.519 11.3547 207.337 11.312 207.145 11.312C206.804 11.312 206.484 11.3653 206.185 11.472C205.887 11.5787 205.684 11.7067 205.577 11.856C205.236 12.3893 204.98 12.8693 204.809 13.296C204.66 13.7227 204.585 14.1813 204.585 14.672C204.585 15.0347 204.575 15.3227 204.553 15.536L204.521 17.36L204.553 18.576C204.553 19.472 204.511 20.1867 204.425 20.72ZM224.856 22.128C224.131 22.128 223.576 22.0213 223.192 21.808C222.808 21.5733 222.392 21.1467 221.944 20.528C221.389 21.0187 220.557 21.4133 219.448 21.712C218.36 22.0107 217.421 22.16 216.632 22.16C215.331 22.16 214.275 21.808 213.464 21.104C212.675 20.3787 212.28 19.3227 212.28 17.936C212.28 17.3387 212.44 16.7947 212.76 16.304C213.101 15.792 213.539 15.344 214.072 14.96C214.669 14.5547 215.373 14.2347 216.184 14C217.016 13.7653 217.773 13.648 218.456 13.648C219.608 13.648 220.632 13.7547 221.528 13.968V13.936C221.528 12.784 221.24 11.9947 220.664 11.568C220.109 11.12 219.213 10.896 217.976 10.896C217.187 10.896 216.504 11.248 215.928 11.952C215.715 12.2293 215.267 12.368 214.584 12.368C214.243 12.368 213.987 12.2293 213.816 11.952C213.667 11.6533 213.592 11.3547 213.592 11.056C213.592 10.4373 213.848 9.904 214.36 9.456C214.893 9.008 215.533 8.67733 216.28 8.464C217.027 8.22933 217.72 8.112 218.36 8.112C218.979 8.112 219.715 8.24 220.568 8.496C221.421 8.752 222.115 9.09333 222.648 9.52C223.288 10.0747 223.779 10.7253 224.12 11.472C224.483 12.1973 224.664 12.9973 224.664 13.872C224.664 14.1493 224.643 14.5653 224.6 15.12C224.557 15.76 224.536 16.2827 224.536 16.688C224.536 16.88 224.515 17.1253 224.472 17.424C224.429 17.808 224.408 18.128 224.408 18.384C224.408 18.6613 224.493 18.928 224.664 19.184C224.835 19.44 225.069 19.6533 225.368 19.824C225.645 19.9733 225.827 20.1333 225.912 20.304C225.997 20.4747 226.04 20.6667 226.04 20.88C226.04 21.0933 225.901 21.36 225.624 21.68C225.368 21.9787 225.112 22.128 224.856 22.128ZM218.456 16.016C217.624 16.016 216.888 16.176 216.248 16.496C215.608 16.816 215.288 17.3813 215.288 18.192C215.288 18.5973 215.427 18.9387 215.704 19.216C216.003 19.4933 216.323 19.632 216.664 19.632C217.581 19.632 218.349 19.536 218.968 19.344C219.587 19.152 220.333 18.8 221.208 18.288C221.315 17.9467 221.379 17.4667 221.4 16.848C221.4 16.6133 221.411 16.432 221.432 16.304C220.28 16.112 219.288 16.016 218.456 16.016ZM232.03 17.04C232.03 17.8507 232.147 18.48 232.382 18.928C232.638 19.3547 232.958 19.568 233.342 19.568C233.555 19.568 233.758 19.5573 233.95 19.536C234.142 19.4933 234.334 19.472 234.526 19.472C234.739 19.472 234.921 19.5787 235.07 19.792C235.241 20.0053 235.326 20.24 235.326 20.496C235.326 21.008 235.081 21.4133 234.59 21.712C234.121 21.9893 233.481 22.128 232.67 22.128C232.094 22.128 231.507 21.9573 230.91 21.616C230.334 21.2533 229.854 20.6987 229.47 19.952C229.086 19.184 228.894 18.2347 228.894 17.104C228.894 14.672 228.937 12.6133 229.022 10.928C229.129 8.92267 229.182 6.39467 229.182 3.344C229.182 2.384 229.235 1.712 229.342 1.328C229.47 1.02933 229.673 0.805332 229.95 0.655998C230.249 0.485332 230.558 0.4 230.878 0.4C231.198 0.4 231.475 0.453333 231.71 0.559999C231.966 0.666666 232.137 0.837332 232.222 1.072C232.307 1.328 232.361 1.584 232.382 1.84C232.425 2.07467 232.446 2.416 232.446 2.864C232.446 3.73867 232.414 4.58133 232.35 5.392C232.307 6.37333 232.286 7.088 232.286 7.536C232.115 11.2907 232.03 14.4587 232.03 17.04ZM250.757 21.84C250.309 21.84 249.882 21.712 249.477 21.456C249.093 21.1787 248.751 20.8907 248.453 20.592C248.154 20.272 247.951 20.0587 247.845 19.952C247.397 20.592 246.746 21.1147 245.893 21.52C245.039 21.9253 244.218 22.128 243.429 22.128C242.213 22.128 241.135 21.872 240.197 21.36C239.258 20.848 238.533 20.1547 238.021 19.28C237.509 18.384 237.253 17.392 237.253 16.304C237.253 15.28 237.37 14.2987 237.605 13.36C237.861 12.4 238.202 11.6 238.629 10.96C239.205 10.1493 239.973 9.50933 240.933 9.04C241.914 8.57067 242.885 8.336 243.845 8.336C244.421 8.336 244.965 8.44267 245.477 8.656C245.989 8.86933 246.437 9.136 246.821 9.456C246.821 8.048 246.81 7.16267 246.789 6.8V6.096C246.789 4.09067 246.917 2.62933 247.173 1.712C247.407 0.815999 247.983 0.367998 248.901 0.367998C249.391 0.367998 249.754 0.474665 249.989 0.688C250.223 0.901333 250.341 1.30667 250.341 1.904C250.341 2.11733 250.287 2.704 250.181 3.664C249.946 6.05333 249.829 8.44267 249.829 10.832C249.829 12.8373 249.861 14.3307 249.925 15.312C250.01 16.272 250.17 17.04 250.405 17.616C250.661 18.192 251.055 18.704 251.589 19.152C251.909 19.408 252.133 19.6213 252.26 19.792C252.41 19.9627 252.485 20.1867 252.485 20.464C252.485 20.8053 252.314 21.1253 251.972 21.424C251.631 21.7013 251.226 21.84 250.757 21.84ZM243.333 19.536C244.463 19.536 245.295 19.184 245.829 18.48C246.383 17.7547 246.661 16.8373 246.661 15.728L246.629 13.936C246.607 13.5947 246.597 13.136 246.597 12.56C245.807 11.6213 244.954 11.152 244.036 11.152C243.418 11.152 242.831 11.312 242.277 11.632C241.743 11.952 241.306 12.4213 240.965 13.04C240.602 13.744 240.421 14.8107 240.421 16.24C240.421 17.2213 240.709 18.0213 241.285 18.64C241.861 19.2373 242.543 19.536 243.333 19.536ZM269.162 20.464C269.162 20.9333 268.906 21.328 268.394 21.648C267.882 21.968 267.412 22.128 266.986 22.128C266.196 22.128 265.556 22.032 265.066 21.84C264.596 21.6267 264.148 21.2427 263.722 20.688C263.188 21.1787 262.442 21.552 261.482 21.808C260.522 22.0427 259.636 22.16 258.826 22.16C257.503 22.16 256.404 21.808 255.53 21.104C254.676 20.3787 254.25 19.3227 254.25 17.936C254.25 17.3387 254.431 16.7413 254.794 16.144C255.156 15.5253 255.604 15.0347 256.138 14.672C256.714 14.288 257.364 14.032 258.09 13.904C258.815 13.7547 259.658 13.68 260.618 13.68C261.066 13.68 261.599 13.7653 262.218 13.936C262.836 14.1067 263.327 14.288 263.69 14.48V13.968C263.69 12.816 263.402 12.0267 262.826 11.6C262.271 11.152 261.375 10.928 260.138 10.928C259.754 10.928 259.402 10.992 259.082 11.12C258.783 11.2267 258.431 11.3867 258.026 11.6C257.642 11.8133 257.279 11.92 256.938 11.92C256.639 11.92 256.351 11.8027 256.074 11.568C255.796 11.312 255.658 11.0453 255.658 10.768C255.658 9.872 256.212 9.22133 257.322 8.816C258.452 8.38933 259.604 8.176 260.778 8.176C261.375 8.176 262.058 8.304 262.826 8.56C263.594 8.79467 264.244 9.12533 264.778 9.552C265.418 10.0853 265.908 10.7253 266.25 11.472C266.612 12.2187 266.794 13.0293 266.794 13.904C266.794 14.1813 266.772 14.5973 266.73 15.152C266.687 15.7493 266.666 16.2613 266.666 16.688L266.634 17.552C266.591 18.0213 266.57 18.3947 266.57 18.672C266.57 18.928 266.655 19.152 266.826 19.344C267.018 19.5147 267.242 19.6 267.498 19.6L268.394 19.568C268.628 19.568 268.81 19.664 268.938 19.856C269.087 20.0267 269.162 20.2293 269.162 20.464ZM258.826 19.632C259.743 19.632 260.511 19.536 261.13 19.344C261.748 19.152 262.495 18.8 263.37 18.288C263.455 17.9253 263.508 17.4453 263.53 16.848C262.356 16.2933 261.386 16.016 260.618 16.016C259.892 16.016 259.306 16.048 258.858 16.112C258.41 16.1547 258.004 16.336 257.641 16.656C257.279 16.976 257.098 17.488 257.098 18.192C257.098 18.5973 257.29 18.9387 257.674 19.216C258.079 19.4933 258.463 19.632 258.826 19.632Z" fill="white"/>
</svg>
